
        <svg xmlns="http://www.w3.org/2000/svg" xmlns:xlink="http://www.w3.org/1999/xlink" version="1.1" width="3056.058109108026" height="3436.579729872575" viewBox="0 0 3056.058109108026 3436.579729872575">
			
			<g transform="scale(21.828986493628754) translate(10, 10)">
				<defs id="SvgjsDefs2272"/><g id="SvgjsG2273" featureKey="8Idkkj-0" transform="matrix(4.013377977624822,0,0,4.013377977624822,-5.2173940501311185,-23.117058069708296)" fill="#000"><path d="M13.26 20 l-3.16 0 l-5.06 -6.96 l-1.14 0 l0 6.96 l-2.6 0 l0 -14.24 l5.1 0 c0.96 0 1.86 0.38 2.56 1.08 s1.08 1.6 1.08 2.56 c0 1.42 -0.84 2.7 -2.08 3.3 z M3.9 10.44 l2.5 0 c0.56 0 1.04 -0.46 1.04 -1.04 s-0.48 -1.04 -1.04 -1.04 l-2.5 0 l0 2.08 z M19.360000000000003 20.2 c-3.06 0 -5.54 -2.48 -5.54 -5.54 l0 -8.9 l2.66 0 l0 8.9 c0 1.6 1.3 2.92 2.88 2.92 c1.6 0 2.88 -1.32 2.88 -2.92 l0 -8.9 l2.68 0 l0 8.9 c0 1.48 -0.58 2.88 -1.62 3.92 c-1.06 1.04 -2.46 1.62 -3.94 1.62 z M31.2 20 l-2.68 0 l0 -14.24 l2.68 0 l0 14.24 z"/></g><g id="SvgjsG2274" featureKey="8Idkkj-1" transform="matrix(4.811547243506756,0,0,4.811547243506756,-7.217322012422391,40.28548907044983)" fill="#000"><path d="M12.64 20 l-2.68 0 l0 -6.9 l-5.78 0 l0 6.9 l-2.68 0 l0 -14.24 l2.68 0 l0 4.72 l5.78 0 l0 -4.72 l2.68 0 l0 14.24 z M20.88 20.2 c-3.06 0 -5.54 -2.48 -5.54 -5.54 l0 -8.9 l2.66 0 l0 8.9 c0 1.6 1.3 2.92 2.88 2.92 c1.6 0 2.88 -1.32 2.88 -2.92 l0 -8.9 l2.68 0 l0 8.9 c0 1.48 -0.58 2.88 -1.62 3.92 c-1.06 1.04 -2.46 1.62 -3.94 1.62 z"/></g>
			</g>
		</svg>
	